# Blender 4.0.2
# www.blender.org
mtllib kostka_clean.mtl
o Cube
v 1.000000 -1.000000 -1.000000
v 1.000000 1.000000 1.000000
v 1.000000 -0.800000 0.800000
v -1.000000 1.000000 -1.000000
v -0.800000 -0.800000 -1.000000
v -0.800000 1.000000 0.800000
v -0.800000 -1.000000 -1.000000
v -0.800000 1.000000 1.000000
v -0.800000 -0.800000 0.800000
v -1.000000 1.000000 0.800000
v 1.000000 -1.000000 0.800000
v -0.800000 -1.000000 0.800000
v 1.000000 -0.800000 1.000000
v -1.000000 -0.800000 -1.000000
v -0.800000 -0.800000 1.000000
v -1.000000 -0.800000 0.800000
vn -1.0000 -0.0000 -0.0000
vn -0.0000 -0.0000 1.0000
vn -0.0000 -1.0000 -0.0000
vt 0.400000 0.975000
vt 0.625000 0.975000
vt 0.625000 1.000000
vt 0.400000 1.000000
vt 0.400000 0.025000
vt 0.625000 0.025000
vt 0.625000 0.250000
vt 0.400000 0.250000
vt 0.150000 0.725000
vt 0.375000 0.725000
vt 0.375000 0.750000
vt 0.150000 0.750000
vt 0.400000 0.750000
vt 0.625000 0.750000
vt 0.125000 0.500000
vt 0.150000 0.500000
vt 0.125000 0.725000
vt 0.375000 0.500000
vt 0.400000 0.000000
vt 0.625000 0.000000
vt 0.375000 0.975000
vt 0.375000 0.025000
vt 0.375000 0.250000
s 0
usemtl Material
f 15/1/1 8/2/1 6/3/1 9/4/1
f 16/5/1 10/6/1 4/7/1 14/8/1
f 12/9/2 11/10/2 3/11/2 9/12/2
f 13/13/2 2/14/2 8/2/2 15/1/2
f 5/15/1 7/16/1 12/9/1 9/17/1
f 7/16/3 1/18/3 11/10/3 12/9/3
f 9/19/2 6/20/2 10/6/2 16/5/2
f 3/11/3 13/13/3 15/1/3 9/21/3
f 9/22/3 16/5/3 14/8/3 5/23/3
